<?xml version="1.0" encoding="utf-8"?>
<!-- Generator: Adobe Illustrator 24.3.0, SVG Export Plug-In . SVG Version: 6.00 Build 0)  -->
<svg version="1.1" xmlns="http://www.w3.org/2000/svg" xmlns:xlink="http://www.w3.org/1999/xlink" x="0px" y="0px"
	 viewBox="0 0 479.2 334" enable-background="new 0 0 479.2 334" xml:space="preserve">
<g id="Layer_2">
	<g>
		<path fill="#FFFFFF" d="M97.2,230.5V104.7c0-49,39.8-88.8,88.8-88.8c49,0,88.8,39.8,88.8,88.8v125.8H97.2z"/>
		<path d="M275,230.7H96.9V104.7c0-49.1,39.9-89,89-89c49.1,0,89,39.9,89,89V230.7L275,230.7z M97.4,230.2h177.1V104.7
			c0-48.8-39.7-88.5-88.5-88.5c-48.8,0-88.5,39.7-88.5,88.5V230.2L97.4,230.2z"/>
	</g>
	<g>
		<path fill="#FFFFFF" d="M274.8,230.5h-3.7V104.7c0-46.9-38.2-85.1-85.1-85.1c-46.9,0-85.1,38.2-85.1,85.1v125.8h-3.7V104.7
			c0-49,39.8-88.8,88.8-88.8c49,0,88.8,39.8,88.8,88.8V230.5L274.8,230.5z"/>
		<path d="M275,230.7h-4.2V104.7c0-46.8-38.1-84.8-84.8-84.8c-46.8,0-84.8,38.1-84.8,84.8v126.1h-4.2V104.7c0-49.1,39.9-89,89-89
			c49.1,0,89,39.9,89,89V230.7L275,230.7z M271.3,230.2h3.2V104.7c0-48.8-39.7-88.5-88.5-88.5c-48.8,0-88.5,39.7-88.5,88.5v125.6
			h3.2V104.7c0-47.1,38.3-85.3,85.3-85.3c47.1,0,85.3,38.3,85.3,85.3V230.2L271.3,230.2z"/>
	</g>
	<rect x="67.7" y="230.6" fill="#FFFFFF" stroke="#000000" stroke-width="0.5" width="236.5" height="6.5"/>
	<rect x="170.6" y="96.1" fill="#FFFFFF" stroke="#000000" stroke-width="0.5" width="34" height="2.2"/>
	<rect x="164.1" y="178.7" fill="#FFFFFF" stroke="#000000" stroke-width="0.5" width="61.8" height="2.8"/>
	<rect x="202.5" y="237.1" fill="#FFFFFF" stroke="#000000" stroke-width="0.5" width="30.9" height="15.5"/>
	<rect x="217" y="181.2" fill="#FFFFFF" stroke="#000000" stroke-width="0.5" width="4.3" height="70.8"/>
	<rect x="243.6" y="244.6" fill="#FFFFFF" stroke="#000000" stroke-width="0.5" width="10.5" height="3.9"/>
	<rect x="243.6" y="248.9" fill="#FFFFFF" stroke="#000000" stroke-width="0.5" width="10.5" height="3.9"/>
	<rect x="246.3" y="237.2" fill="#FFFFFF" stroke="#000000" stroke-width="0.5" width="4.7" height="20"/>
	<g>
		<line fill="#FFFFFF" stroke="#000000" stroke-width="0.5" x1="246.2" y1="239.2" x2="249.5" y2="239.2"/>
		<line fill="#FFFFFF" stroke="#000000" stroke-width="0.5" x1="246.2" y1="241.2" x2="249.5" y2="241.2"/>
		<line fill="#FFFFFF" stroke="#000000" stroke-width="0.5" x1="246.2" y1="243.2" x2="249.5" y2="243.2"/>
		<line fill="#FFFFFF" stroke="#000000" stroke-width="0.5" x1="246.2" y1="245.2" x2="249.5" y2="245.2"/>
		<line fill="#FFFFFF" stroke="#000000" stroke-width="0.5" x1="246.2" y1="247.2" x2="249.5" y2="247.2"/>
		<line fill="#FFFFFF" stroke="#000000" stroke-width="0.5" x1="246.2" y1="249.2" x2="249.5" y2="249.2"/>
		<line fill="#FFFFFF" stroke="#000000" stroke-width="0.5" x1="246.2" y1="251.3" x2="249.5" y2="251.3"/>
		<line fill="#FFFFFF" stroke="#000000" stroke-width="0.5" x1="246.2" y1="253.3" x2="249.5" y2="253.3"/>
		<line fill="#FFFFFF" stroke="#000000" stroke-width="0.5" x1="246.2" y1="255.3" x2="249.5" y2="255.3"/>
	</g>
	<rect x="164.2" y="215" fill="#FFFFFF" stroke="#000000" stroke-width="0.5" width="42.8" height="15.6"/>
	<path fill="#FFFFFF" stroke="#000000" stroke-width="0.5" d="M192.9,215.1c0,4-3.3,7.3-7.3,7.3c-4,0-7.3-3.3-7.3-7.3H192.9z"/>
	<rect x="108.2" y="225.8" fill="#FFFFFF" stroke="#000000" stroke-width="0.5" width="20.6" height="4.5"/>
	<rect x="112.5" y="222.4" fill="#FFFFFF" stroke="#000000" stroke-width="0.5" width="10.7" height="3.1"/>
	<path fill="#FFFFFF" stroke="#000000" stroke-width="0.5" d="M119.6,222.4h-2.5v-89c0-0.3-0.3-7.6,3.5-11.4l19.9-20.4l1.8,1.7
		l-19.9,20.4c-2.5,2.5-2.8,7.8-2.7,9.6L119.6,222.4L119.6,222.4z"/>
	<polygon fill="#FFFFFF" stroke="#000000" stroke-width="0.5" points="150.2,96.8 146.5,92.9 139.9,100.8 143.6,104.6 	"/>
	<polygon fill="#FFFFFF" stroke="#000000" stroke-width="0.5" points="152.8,96 151.6,95 142.2,106.2 143.3,107.1 	"/>
	<rect x="107.9" y="237.3" fill="#FFFFFF" stroke="#000000" stroke-width="0.5" width="20.6" height="3.6"/>
	<rect x="116.9" y="241.1" fill="#FFFFFF" stroke="#000000" stroke-width="0.5" width="0.9" height="12.4"/>
	<rect x="118.9" y="241.1" fill="#FFFFFF" stroke="#000000" stroke-width="0.5" width="0.9" height="12.4"/>
	<rect x="121.2" y="240.8" fill="#FFFFFF" stroke="#000000" stroke-width="0.5" width="2.8" height="3.1"/>
	<path fill="#FFFFFF" stroke="#000000" stroke-width="0.5" d="M130.3,267.7l-4.8-6.6c-4-4.1-3.7-9.2-3.7-9.5l0-7.7h1.5v7.7
		c0,0.1-0.2,4.7,3.3,8.4l4.9,6.7L130.3,267.7L130.3,267.7z"/>
	<polygon fill="#FFFFFF" stroke="#000000" stroke-width="0.5" points="143.6,277.5 134.9,283 126.6,269.9 135.2,264.3 	"/>
</g>
<g id="Layer_3">
	<g>
		<rect x="311.8" y="121.4" fill="#FFFFFF" stroke="#000000" stroke-width="0.5" width="167.1" height="71.7"/>
		<line fill="#FFFFFF" stroke="#000000" stroke-width="0.5" x1="313.5" y1="121.4" x2="313.5" y2="193.1"/>
		<line fill="#FFFFFF" stroke="#000000" stroke-width="0.5" x1="477.3" y1="121.4" x2="477.3" y2="193.1"/>
		<line fill="#FFFFFF" stroke="#000000" stroke-width="0.5" x1="313.5" y1="123.7" x2="477.3" y2="123.7"/>
		<line fill="#FFFFFF" stroke="#000000" stroke-width="0.5" x1="313.5" y1="190.6" x2="477.3" y2="190.6"/>
	</g>
	<rect x="319.4" y="136.6" fill="#FFFFFF" stroke="#000000" stroke-width="0.5" width="50.3" height="14.6"/>
	<rect x="330.6" y="132.7" fill="#FFFFFF" stroke="#000000" stroke-width="0.5" width="3.1" height="1.9"/>
	<rect x="355.6" y="153.2" fill="#FFFFFF" stroke="#000000" stroke-width="0.5" width="3.1" height="1.9"/>
	<rect x="373.4" y="136.6" fill="#FFFFFF" stroke="#000000" stroke-width="0.5" width="50.3" height="14.6"/>
	<rect x="384.6" y="132.7" fill="#FFFFFF" stroke="#000000" stroke-width="0.5" width="3.1" height="1.9"/>
	<rect x="409.6" y="153.2" fill="#FFFFFF" stroke="#000000" stroke-width="0.5" width="3.1" height="1.9"/>
	<rect x="455.5" y="132.7" fill="#FFFFFF" stroke="#000000" stroke-width="0.5" width="15.3" height="11.1"/>
	<rect x="457.1" y="134.8" fill="#FFFFFF" stroke="#000000" stroke-width="0.5" width="12" height="7.6"/>
	<line fill="#FFFFFF" stroke="#000000" stroke-width="0.5" x1="463.1" y1="142" x2="463.1" y2="134.6"/>
	<rect x="364.4" y="172.9" fill="#FFFFFF" stroke="#000000" stroke-width="0.5" width="40" height="15.7"/>
	<path fill="#FFFFFF" stroke="#000000" stroke-width="0.5" d="M329.9,164.4c0,3.1-2.5,5.6-5.6,5.6c-3.1,0-5.6-2.5-5.6-5.6
		c0-3.1,2.5-5.6,5.6-5.6C327.5,158.9,329.9,161.3,329.9,164.4z"/>
	<path fill="#FFFFFF" stroke="#000000" stroke-width="0.5" d="M327.2,164.4c0,1.5-1.2,2.8-2.8,2.8c-1.5,0-2.8-1.2-2.8-2.8
		c0-1.5,1.2-2.8,2.8-2.8C325.9,161.6,327.2,162.9,327.2,164.4z"/>
	<path fill="#FFFFFF" stroke="#000000" stroke-width="0.5" d="M346,164.4c0,3.1-2.5,5.6-5.6,5.6c-3.1,0-5.6-2.5-5.6-5.6
		c0-3.1,2.5-5.6,5.6-5.6C343.5,158.9,346,161.3,346,164.4z"/>
	<path fill="#FFFFFF" stroke="#000000" stroke-width="0.5" d="M343.2,164.4c0,1.5-1.2,2.8-2.8,2.8c-1.5,0-2.8-1.2-2.8-2.8
		c0-1.5,1.2-2.8,2.8-2.8C342,161.6,343.2,162.9,343.2,164.4z"/>
	<path fill="#FFFFFF" stroke="#000000" stroke-width="0.5" d="M437.9,135.9c0,1.8-1.4,3.2-3.2,3.2c-1.8,0-3.2-1.4-3.2-3.2
		c0-1.8,1.4-3.2,3.2-3.2C436.4,132.7,437.9,134.1,437.9,135.9z"/>
	<path fill="#FFFFFF" stroke="#000000" stroke-width="0.5" d="M436.3,135.9c0,0.9-0.7,1.6-1.6,1.6c-0.9,0-1.6-0.7-1.6-1.6
		c0-0.9,0.7-1.6,1.6-1.6C435.5,134.3,436.3,135,436.3,135.9z"/>
	<path fill="#FFFFFF" stroke="#000000" stroke-width="0.5" d="M436.3,146.3c0,0.9-0.7,1.6-1.6,1.6c-0.9,0-1.6-0.7-1.6-1.6
		c0-0.9,0.7-1.6,1.6-1.6C435.5,144.7,436.3,145.4,436.3,146.3z"/>
	<path fill="#FFFFFF" stroke="#000000" stroke-width="0.5" d="M434.9,165.6c0,2.7-2.2,4.9-4.9,4.9c-2.7,0-4.9-2.2-4.9-4.9
		c0-2.7,2.2-4.9,4.9-4.9C432.7,160.7,434.9,162.9,434.9,165.6z"/>
	<rect x="427.1" y="164.8" fill="#FFFFFF" stroke="#000000" stroke-width="0.5" width="5.8" height="1.6"/>
	<path fill="#FFFFFF" stroke="#000000" stroke-width="0.5" d="M450.5,138.1c0,2.7-2.2,5-5,5c-2.7,0-5-2.2-5-5c0-2.7,2.2-5,5-5
		C448.3,133.1,450.5,135.4,450.5,138.1z"/>
	<rect x="444.6" y="132" fill="#FFFFFF" stroke="#000000" stroke-width="0.5" width="1.9" height="12.2"/>
	<path fill="#FFFFFF" stroke="#000000" stroke-width="0.5" d="M448,138.1c0,1.4-1.1,2.5-2.5,2.5c-1.4,0-2.5-1.1-2.5-2.5
		c0-1.4,1.1-2.5,2.5-2.5C446.9,135.6,448,136.7,448,138.1z"/>
	<path fill="#FFFFFF" stroke="#000000" stroke-width="0.5" d="M356.4,125.4c0,0.6-0.5,1.1-1.1,1.1s-1.1-0.5-1.1-1.1
		c0-0.6,0.5-1.1,1.1-1.1S356.4,124.8,356.4,125.4z"/>
	<path fill="#FFFFFF" stroke="#000000" stroke-width="0.5" d="M436.6,125.4c0,0.6-0.5,1.1-1.1,1.1c-0.6,0-1.1-0.5-1.1-1.1
		c0-0.6,0.5-1.1,1.1-1.1C436.1,124.3,436.6,124.8,436.6,125.4z"/>
	<path fill="#FFFFFF" stroke="#000000" stroke-width="0.5" d="M356.4,189c0,0.6-0.5,1.1-1.1,1.1s-1.1-0.5-1.1-1.1
		c0-0.6,0.5-1.1,1.1-1.1S356.4,188.4,356.4,189z"/>
	<path fill="#FFFFFF" stroke="#000000" stroke-width="0.5" d="M436.6,189c0,0.6-0.5,1.1-1.1,1.1c-0.6,0-1.1-0.5-1.1-1.1
		c0-0.6,0.5-1.1,1.1-1.1C436.1,187.9,436.6,188.4,436.6,189z"/>
	<path fill="#FFFFFF" stroke="#000000" stroke-width="0.5" d="M467.8,162.3c0,2.7-2.2,4.8-4.8,4.8h-14.6c-2.7,0-4.8-2.2-4.8-4.8
		v-8.8c0-2.7,2.2-4.8,4.8-4.8H463c2.7,0,4.8,2.2,4.8,4.8V162.3z"/>
	<path fill="#FFFFFF" stroke="#000000" stroke-width="0.5" d="M371.8,168.2c0,1-0.8,1.9-1.9,1.9h-10.3c-1,0-1.9-0.8-1.9-1.9
		l-1.2-4.6c0-1,0.8-1.9,1.9-1.9h12.8c1,0,1.9,0.8,1.9,1.9L371.8,168.2z"/>
	<rect x="446.6" y="157.3" fill="#FFFFFF" stroke="#000000" stroke-width="0.5" width="1.6" height="4.7"/>
	<rect x="462.9" y="157.3" fill="#FFFFFF" stroke="#000000" stroke-width="0.5" width="1.6" height="4.7"/>
	<rect x="455" y="150.1" fill="#FFFFFF" stroke="#000000" stroke-width="0.5" width="1.6" height="4.7"/>
	<path fill="#FFFFFF" stroke="#000000" stroke-width="0.5" d="M355.9,165.9c0,0.7-0.6,1.2-1.2,1.2c-0.7,0-1.2-0.6-1.2-1.2
		c0-0.7,0.6-1.2,1.2-1.2C355.4,164.7,355.9,165.2,355.9,165.9z"/>
	<path fill="#FFFFFF" stroke="#000000" stroke-width="0.5" d="M375.9,165.9c0,0.7-0.6,1.2-1.2,1.2c-0.7,0-1.2-0.6-1.2-1.2
		c0-0.7,0.6-1.2,1.2-1.2C375.4,164.7,375.9,165.2,375.9,165.9z"/>
	<path fill="#FFFFFF" stroke="#000000" stroke-width="0.5" d="M411.8,168.2c0,1-0.8,1.9-1.9,1.9h-16.7c-1,0-1.9-0.8-1.9-1.9
		l-1.2-4.6c0-1,0.8-1.9,1.9-1.9h19.1c1,0,1.9,0.8,1.9,1.9L411.8,168.2z"/>
	<path fill="#FFFFFF" stroke="#000000" stroke-width="0.5" d="M389.5,165.9c0,0.7-0.6,1.2-1.2,1.2c-0.7,0-1.2-0.6-1.2-1.2
		c0-0.7,0.6-1.2,1.2-1.2C388.9,164.7,389.5,165.2,389.5,165.9z"/>
	<path fill="#FFFFFF" stroke="#000000" stroke-width="0.5" d="M415.9,165.9c0,0.7-0.6,1.2-1.2,1.2c-0.7,0-1.2-0.6-1.2-1.2
		c0-0.7,0.6-1.2,1.2-1.2C415.3,164.7,415.9,165.2,415.9,165.9z"/>
	<path fill="#FFFFFF" stroke="#000000" stroke-width="0.5" d="M441,157.7c0,0.7-0.6,1.2-1.2,1.2c-0.7,0-1.2-0.6-1.2-1.2
		c0-0.7,0.6-1.2,1.2-1.2C440.5,156.4,441,157,441,157.7z"/>
	<path fill="#FFFFFF" stroke="#000000" stroke-width="0.5" d="M472.4,157.7c0,0.7-0.6,1.2-1.2,1.2c-0.7,0-1.2-0.6-1.2-1.2
		c0-0.7,0.6-1.2,1.2-1.2C471.8,156.4,472.4,157,472.4,157.7z"/>
	<rect x="313.8" y="260.9" fill="#FFFFFF" stroke="#2E3192" stroke-width="0.5" stroke-dasharray="3" width="164.2" height="44.8"/>
	<path fill="#FFFFFF" stroke="#000000" stroke-width="0.5" d="M162.5,304.8c-0.9,0-9.6-0.2-15.1-8.9l-9.3-14.8l1.3-0.8l9.3,14.8
		c5.3,8.2,13.8,8.1,13.9,8.1h115.8c8.7,0,11.4-11.5,11.5-11.6l49.9-127.5l1.4,0.6l-49.9,127.4c0,0-3,12.7-12.9,12.7H162.5
		C162.6,304.8,162.6,304.8,162.5,304.8L162.5,304.8z"/>
</g>
<g id="Layer_4">
	<g>
		<g>
			<line fill="none" stroke="#00AEEF" x1="88.6" y1="80.5" x2="136.8" y2="96"/>
			<path fill="#00AEEF" d="M139.4,95.8c-1.4-1-2.3-1.8-3.4-2.7l-1.5,4.8c0.5-0.1,2.6-0.2,4.3-0.2c1.8,0,3.5,0.2,4.5,0.4
				C142.3,97.7,140.9,96.8,139.4,95.8z"/>
		</g>
	</g>
	<g>
		<g>
			<line fill="none" stroke="#00AEEF" x1="81" y1="104.7" x2="137" y2="104.7"/>
			<path fill="#00AEEF" d="M139.4,103.7c-1.7-0.5-2.7-1-4.1-1.5v5c0.5-0.2,2.4-1,4.1-1.5c1.8-0.5,3.4-0.9,4.4-1
				C142.8,104.6,141.2,104.2,139.4,103.7z"/>
		</g>
	</g>
	<g>
		<g>
			<line fill="none" stroke="#00AEEF" x1="185.7" y1="215.6" x2="169.4" y2="199.3"/>
			<path fill="#00AEEF" d="M167,198.3c0.8,1.5,1.3,2.6,1.8,3.9l3.6-3.6c-0.5-0.2-2.4-1-3.9-1.8c-1.6-0.9-3-1.8-3.9-2.4
				C165.2,195.3,166.1,196.7,167,198.3z"/>
		</g>
	</g>
	<g>
		<g>
			<line fill="none" stroke="#00AEEF" x1="185.7" y1="215.6" x2="174.2" y2="195.6"/>
			<path fill="#00AEEF" d="M172.1,194.1c0.4,1.7,0.5,2.8,0.7,4.3l4.4-2.5c-0.4-0.3-2.1-1.6-3.3-2.8c-1.3-1.3-2.5-2.5-3.1-3.3
				C171.2,190.7,171.7,192.3,172.1,194.1z"/>
		</g>
	</g>
	<g>
		<g>
			<line fill="none" stroke="#00AEEF" x1="185.7" y1="215.6" x2="179.7" y2="193.3"/>
			<path fill="#00AEEF" d="M178.1,191.3c-0.1,1.7-0.2,2.9-0.4,4.3l4.9-1.3c-0.3-0.4-1.6-2.1-2.5-3.5c-1-1.6-1.7-3-2.1-4
				C178.1,187.8,178.2,189.4,178.1,191.3z"/>
		</g>
	</g>
	<g>
		<g>
			<line fill="none" stroke="#00AEEF" x1="185.4" y1="215.6" x2="201.7" y2="199.3"/>
			<path fill="#00AEEF" d="M202.6,196.9c-1.5,0.8-2.6,1.3-3.9,1.8l3.6,3.6c0.2-0.5,1-2.4,1.8-3.9c0.9-1.6,1.7-3,2.4-3.9
				C205.6,195.1,204.3,196,202.6,196.9z"/>
		</g>
	</g>
	<g>
		<g>
			<line fill="none" stroke="#00AEEF" x1="185.4" y1="215.6" x2="196.9" y2="195.6"/>
			<path fill="#00AEEF" d="M197.2,193c-1.3,1.2-2.2,1.9-3.3,2.8l4.4,2.5c0-0.5,0.3-2.6,0.7-4.3c0.4-1.8,0.9-3.4,1.3-4.3
				C199.7,190.6,198.5,191.8,197.2,193z"/>
		</g>
	</g>
	<g>
		<g>
			<line fill="none" stroke="#00AEEF" x1="185.4" y1="215.6" x2="191.3" y2="193.3"/>
			<path fill="#00AEEF" d="M191,190.7c-0.9,1.5-1.6,2.4-2.5,3.5l4.9,1.3c-0.1-0.5-0.3-2.6-0.4-4.3c-0.1-1.8,0-3.5,0.1-4.5
				C192.7,187.7,191.9,189.2,191,190.7z"/>
		</g>
	</g>
	<g>
		<g>
			<line fill="none" stroke="#00AEEF" x1="185.7" y1="215.6" x2="185.7" y2="192.5"/>
			<path fill="#00AEEF" d="M184.7,190.1c-0.5,1.7-1,2.7-1.5,4.1h5c-0.2-0.5-1-2.4-1.5-4.1c-0.5-1.8-0.9-3.4-1-4.4
				C185.6,186.8,185.2,188.4,184.7,190.1z"/>
		</g>
	</g>
	<g>
		<g>
			<line fill="none" stroke="#00AEEF" x1="86.5" y1="153.6" x2="111.1" y2="162.5"/>
			<path fill="#00AEEF" d="M113.7,162.3c-1.4-1-2.2-1.8-3.3-2.8l-1.7,4.7c0.5-0.1,2.6-0.1,4.3,0c1.8,0.1,3.5,0.3,4.5,0.5
				C116.6,164.3,115.2,163.4,113.7,162.3z"/>
		</g>
	</g>
	<g>
		<g>
			<line fill="none" stroke="#00AEEF" x1="62.9" y1="198.9" x2="107" y2="220.7"/>
			<path fill="#00AEEF" d="M109.6,220.9c-1.3-1.2-2-2.1-3-3.1l-2.2,4.5c0.5,0,2.6,0.2,4.3,0.5c1.8,0.3,3.4,0.7,4.4,1
				C112.2,223.2,110.9,222.1,109.6,220.9z"/>
		</g>
	</g>
	<g>
		<g>
			<line fill="none" stroke="#00AEEF" x1="92.6" y1="261.3" x2="118.5" y2="261.3"/>
			<path fill="#00AEEF" d="M120.9,260.3c-1.7-0.5-2.7-1-4.1-1.5v5c0.5-0.2,2.4-1,4.1-1.5c1.8-0.5,3.4-0.9,4.4-1
				C124.3,261.2,122.7,260.8,120.9,260.3z"/>
		</g>
	</g>
	<g>
		<g>
			<line fill="none" stroke="#00AEEF" x1="116.6" y1="290.4" x2="127.1" y2="282.4"/>
			<path fill="#00AEEF" d="M128.4,280.2c-1.6,0.6-2.8,0.9-4.1,1.3l3.1,4c0.2-0.5,1.3-2.2,2.3-3.6c1.1-1.5,2.1-2.8,2.9-3.5
				C131.6,278.8,130.1,279.5,128.4,280.2z"/>
		</g>
	</g>
	<g>
		<g>
			<polyline fill="none" stroke="#00AEEF" points="309.8,280.3 207.9,280.3 184.4,244.8 			"/>
			<path fill="#00AEEF" d="M182.3,243.4c0.5,1.7,0.7,2.8,1,4.2l4.2-2.8c-0.5-0.3-2.2-1.5-3.5-2.6c-1.4-1.2-2.6-2.3-3.3-3.1
				C181.2,240.1,181.8,241.7,182.3,243.4z"/>
		</g>
	</g>
	<g>
		<g>
			<line fill="none" stroke="#00AEEF" x1="251" y1="26.5" x2="149.5" y2="102"/>
			<path fill="#00AEEF" d="M148.2,104.2c1.6-0.6,2.8-0.9,4.1-1.2l-3-4c-0.2,0.5-1.3,2.2-2.4,3.6c-1.1,1.5-2.2,2.7-2.9,3.5
				C145,105.5,146.5,104.8,148.2,104.2z"/>
		</g>
	</g>
	<g>
		<g>
			<line fill="none" stroke="#00AEEF" x1="209.5" y1="94.2" x2="273" y2="57.5"/>
			<path fill="#00AEEF" d="M208,96.3c1.7-0.4,2.8-0.5,4.3-0.7l-2.5-4.4c-0.3,0.4-1.6,2.1-2.8,3.3c-1.3,1.3-2.5,2.5-3.3,3.1
				C204.6,97.2,206.2,96.7,208,96.3z"/>
		</g>
	</g>
	<g>
		<g>
			<line fill="none" stroke="#00AEEF" x1="198.5" y1="174" x2="285" y2="81"/>
			<path fill="#00AEEF" d="M197.7,176.4c1.5-0.9,2.6-1.3,3.9-2l-3.7-3.4c-0.2,0.5-0.9,2.4-1.7,4c-0.8,1.7-1.6,3.1-2.3,3.9
				C194.7,178.3,196.1,177.3,197.7,176.4z"/>
		</g>
	</g>
	<g>
		<g>
			<line fill="none" stroke="#00AEEF" x1="210" y1="210.5" x2="303.5" y2="116.5"/>
			<path fill="#00AEEF" d="M209.1,212.9c1.5-0.8,2.6-1.3,3.9-1.8l-3.6-3.6c-0.2,0.5-1,2.4-1.8,3.9c-0.9,1.6-1.7,3-2.4,3.9
				C206,214.7,207.4,213.8,209.1,212.9z"/>
		</g>
	</g>
</g>
<g id="Layer_5">
	<text transform="matrix(1 0 0 1 41.3735 77.3081)" font-family="'Helvetica'" font-size="12px">SENSOR</text>
	<text transform="matrix(1 0 0 1 242.3735 10.3081)"><tspan x="0" y="0" font-family="'Helvetica'" font-size="12px">SENSOR</tspan><tspan x="-3" y="12" font-family="'Helvetica'" font-size="12px">SHUTTER</tspan></text>
	<text transform="matrix(1 0 0 1 272.2061 53.8081)" font-family="'Helvetica'" font-size="12px">SUBSTRATE</text>
	<text transform="matrix(1 0 0 1 292.5439 76.3081)"><tspan x="0" y="0" font-family="'Helvetica'" font-size="12px">SOURCE</tspan><tspan x="-2.7" y="12" font-family="'Helvetica'" font-size="12px">SHUTTER</tspan></text>
	<text transform="matrix(1 0 0 1 283.0439 110.8081)" font-family="'Helvetica'" font-size="12px">SOURCE</text>
	<text transform="matrix(1 0 0 1 329.3721 209.8081)" font-family="'Helvetica'" font-size="12px">MONITOR / CONTROLLER</text>
	<text transform="matrix(1 0 0 1 347.708 281.3081)"><tspan x="0" y="0" font-family="'Helvetica'" font-size="12px">SOURCE POWER</tspan><tspan x="26.3" y="12" font-family="'Helvetica'" font-size="12px">SUPPLY</tspan></text>
	<text transform="matrix(1 0 0 1 23.5395 109.3081)" font-family="'Helvetica'" font-size="12px">CRYSTAL</text>
	<text transform="matrix(1 0 0 1 22.2158 143.8081)"><tspan x="0" y="0" font-family="'Helvetica'" font-size="12px">IN-VACUUM</tspan><tspan x="14.3" y="12" font-family="'Helvetica'" font-size="12px">CABLE</tspan></text>
	<text transform="matrix(1 0 0 1 -0.1201 193.8081)" font-family="'Helvetica'" font-size="12px">FEEDTHROUGH</text>
	<text transform="matrix(1 0 0 1 29.0776 261.8081)"><tspan x="0" y="0" font-family="'Helvetica'" font-size="12px">SHORT 6&quot;</tspan><tspan x="-5.9" y="12" font-family="'Helvetica'" font-size="12px">BNC CABLE</tspan></text>
	<text transform="matrix(1 0 0 1 52.2017 304.3081)" font-family="'Helvetica'" font-size="12px">OSCILLATOR</text>
	<text transform="matrix(1 0 0 1 175.7061 319.3081)"><tspan x="0" y="0" font-family="'Helvetica'" font-size="12px">SENSOR INPUT</tspan><tspan x="11" y="12" font-family="'Helvetica'" font-size="12px">BNC CABLE</tspan></text>
	<text transform="matrix(1 0 0 1 348.0439 240.3081)" font-family="'Helvetica'" font-size="12px">CONTROL OUTPUT</text>
</g>
</svg>
